<svg width="20" height="20" viewBox="0 0 20 20" fill="none" xmlns="http://www.w3.org/2000/svg">
<g clip-path="url(#clip0_5_58)">
<path d="M10 8.75C10.2486 8.75 10.4871 8.84877 10.6629 9.02459C10.8387 9.2004 10.9375 9.43886 10.9375 9.6875V14.0625C10.9375 14.3111 10.8387 14.5496 10.6629 14.7254C10.4871 14.9012 10.2486 15 10 15C9.75136 15 9.5129 14.9012 9.33709 14.7254C9.16127 14.5496 9.0625 14.3111 9.0625 14.0625V9.6875C9.0625 9.43886 9.16127 9.2004 9.33709 9.02459C9.5129 8.84877 9.75136 8.75 10 8.75V8.75ZM10 5C9.66848 5 9.35054 5.1317 9.11612 5.36612C8.8817 5.60054 8.75 5.91848 8.75 6.25C8.75 6.58152 8.8817 6.89946 9.11612 7.13388C9.35054 7.3683 9.66848 7.5 10 7.5H10.0087C10.3403 7.5 10.6582 7.3683 10.8926 7.13388C11.1271 6.89946 11.2587 6.58152 11.2587 6.25C11.2587 5.91848 11.1271 5.60054 10.8926 5.36612C10.6582 5.1317 10.3403 5 10.0087 5H10Z" fill="black"/>
<path fill-rule="evenodd" clip-rule="evenodd" d="M0 10C0 7.34784 1.05357 4.8043 2.92893 2.92893C4.8043 1.05357 7.34784 0 10 0C12.6522 0 15.1957 1.05357 17.0711 2.92893C18.9464 4.8043 20 7.34784 20 10C20 12.6522 18.9464 15.1957 17.0711 17.0711C15.1957 18.9464 12.6522 20 10 20C7.34784 20 4.8043 18.9464 2.92893 17.0711C1.05357 15.1957 0 12.6522 0 10V10ZM10 1.875C7.84512 1.875 5.77849 2.73102 4.25476 4.25476C2.73102 5.77849 1.875 7.84512 1.875 10C1.875 12.1549 2.73102 14.2215 4.25476 15.7452C5.77849 17.269 7.84512 18.125 10 18.125C12.1549 18.125 14.2215 17.269 15.7452 15.7452C17.269 14.2215 18.125 12.1549 18.125 10C18.125 7.84512 17.269 5.77849 15.7452 4.25476C14.2215 2.73102 12.1549 1.875 10 1.875V1.875Z" fill="black"/>
</g>
<defs>
<clipPath id="clip0_5_58">
<rect width="20" height="20" fill="white"/>
</clipPath>
</defs>
</svg>
