<svg width="20" height="20" viewBox="0 0 20 20" fill="none" xmlns="http://www.w3.org/2000/svg">
<g clip-path="url(#clip0_5_62)">
<path fill-rule="evenodd" clip-rule="evenodd" d="M2.91667 17.5H2.08333C1.6231 17.5 1.25 17.1269 1.25 16.6667C1.25 16.2064 1.6231 15.8333 2.08333 15.8333H2.91667V14.1667H2.08333C1.6231 14.1667 1.25 13.7936 1.25 13.3333C1.25 12.8731 1.6231 12.5 2.08333 12.5H2.91667V10.8333H2.08333C1.6231 10.8333 1.25 10.4602 1.25 10C1.25 9.53975 1.6231 9.16667 2.08333 9.16667H2.91667V7.5H2.08333C1.6231 7.5 1.25 7.12691 1.25 6.66667C1.25 6.20643 1.6231 5.83333 2.08333 5.83333H2.91667V4.16667H2.08333C1.6231 4.16667 1.25 3.79357 1.25 3.33333C1.25 2.8731 1.6231 2.5 2.08333 2.5H2.91667C2.91667 1.11929 4.03596 0 5.41667 0H16.25C17.6307 0 18.75 1.11929 18.75 2.5V17.5C18.75 18.8807 17.6307 20 16.25 20H5.41667C4.03596 20 2.91667 18.8807 2.91667 17.5ZM15.4167 18.3333H16.25C16.7102 18.3333 17.0833 17.9602 17.0833 17.5V2.5C17.0833 2.03977 16.7102 1.66667 16.25 1.66667H5.41667C4.95643 1.66667 4.58333 2.03977 4.58333 2.5V17.5C4.58333 17.9602 4.95643 18.3333 5.41667 18.3333H6.25V15.8333C6.25 13.9924 7.74238 12.5 9.58333 12.5H12.0833C13.9242 12.5 15.4167 13.9924 15.4167 15.8333V18.3333ZM13.75 18.3333V15.8333C13.75 14.9128 13.0038 14.1667 12.0833 14.1667H9.58333C8.66286 14.1667 7.91667 14.9128 7.91667 15.8333V18.3333H13.75ZM10.8333 4.16667C12.9044 4.16667 14.5833 5.8456 14.5833 7.91667C14.5833 9.98775 12.9044 11.6667 10.8333 11.6667C8.76225 11.6667 7.08333 9.98775 7.08333 7.91667C7.08333 5.8456 8.76225 4.16667 10.8333 4.16667ZM10.8333 5.83333C9.68275 5.83333 8.75 6.76607 8.75 7.91667C8.75 9.06725 9.68275 10 10.8333 10C11.9839 10 12.9167 9.06725 12.9167 7.91667C12.9167 6.76607 11.9839 5.83333 10.8333 5.83333Z" fill="black"/>
</g>
<defs>
<clipPath id="clip0_5_62">
<rect width="20" height="20" fill="white"/>
</clipPath>
</defs>
</svg>
