<svg width="31" height="38" viewBox="0 0 31 38" fill="none" xmlns="http://www.w3.org/2000/svg">
<path d="M25.9173 4.44472H20.1426C19.8545 1.94679 17.7292 0 15.1552 0C12.5813 0 10.4564 1.94671 10.1683 4.44472H4.39329C2.05631 4.44472 0.155273 6.34629 0.155273 8.6832V8.90067C0.155273 10.6865 1.26724 12.215 2.83369 12.8379V32.8601C2.83369 35.1971 4.73495 37.0986 7.07178 37.0986H23.2388C25.5758 37.0986 27.4769 35.197 27.4769 32.8601V12.8379C29.0432 12.215 30.1553 10.6865 30.1553 8.90075V8.68327C30.1553 6.34629 28.2541 4.44472 25.9173 4.44472ZM15.1552 2.01008C16.6192 2.01008 17.8411 3.05937 18.1115 4.44472H12.1995C12.4698 3.0593 13.6918 2.01008 15.1552 2.01008ZM25.4668 32.8601C25.4668 34.0888 24.4671 35.0886 23.2388 35.0886H7.0717C5.84338 35.0886 4.84369 34.0888 4.84369 32.8601V13.1391H25.4668V32.8601ZM28.1452 8.90067C28.1452 10.1294 27.1455 11.1291 25.9172 11.1291H4.39329C3.16497 11.1291 2.16528 10.1294 2.16528 8.90067V8.6832C2.16528 7.45449 3.16497 6.45472 4.39329 6.45472H25.9173C27.1456 6.45472 28.1453 7.45449 28.1453 8.6832V8.90067H28.1452Z" fill="black"/>
<path d="M9.76672 32.518C10.3218 32.518 10.7717 32.0679 10.7717 31.5131V20.197C10.7717 19.6421 10.3217 19.1919 9.76672 19.1919C9.21174 19.1919 8.76172 19.6421 8.76172 20.197V31.5131C8.76164 32.068 9.21166 32.518 9.76672 32.518Z" fill="black"/>
<path d="M15.1554 32.518C15.7105 32.518 16.1605 32.0679 16.1605 31.5131V20.197C16.1605 19.6421 15.7103 19.1919 15.1554 19.1919C14.6004 19.1919 14.1504 19.6421 14.1504 20.197V31.5131C14.1504 32.068 14.6003 32.518 15.1554 32.518Z" fill="black"/>
<path d="M20.5432 32.518C21.0981 32.518 21.5481 32.0679 21.5481 31.5131V20.197C21.5481 19.6421 21.0981 19.1919 20.5432 19.1919C19.988 19.1919 19.5381 19.6421 19.5381 20.197V31.5131C19.538 32.068 19.9882 32.518 20.5432 32.518Z" fill="black"/>
</svg>
