<svg width="30" height="30" viewBox="0 0 30 30" fill="none" xmlns="http://www.w3.org/2000/svg">
<path d="M14.0656 8.87273L11.1595 11.7789C10.0888 12.8496 9.01199 13.9203 7.94741 15.0032C7.69657 15.2602 7.5069 15.6028 7.43348 15.9393C7.04803 17.7075 6.67482 19.4756 6.30161 21.2438L6.09359 22.2227C5.9957 22.6999 6.12418 23.1772 6.44845 23.5014C6.69929 23.7523 7.04803 23.893 7.41513 23.893C7.51914 23.893 7.62315 23.8808 7.72716 23.8624L8.80397 23.636C10.5171 23.2751 12.2363 22.908 13.9494 22.5531C14.3471 22.4675 14.6836 22.29 14.9711 22.0025C19.7801 17.1874 24.589 12.3785 29.3979 7.57567C29.7528 7.22081 29.9486 6.79865 29.9975 6.2786C30.0037 6.19294 29.9975 6.10729 29.9792 6.02775C29.9486 5.90539 29.9241 5.7769 29.8935 5.65454C29.8262 5.34251 29.7528 4.98765 29.606 4.64503C28.7066 2.5893 27.2137 1.12093 25.1702 0.294966C24.7603 0.129774 24.3259 0.0747098 23.9466 0.0257639L23.8426 0.0135275C23.2919 -0.0537731 22.7903 0.129774 22.3559 0.570287C19.6027 3.33573 16.8311 6.10729 14.0656 8.87273ZM23.6407 1.48802C23.6529 1.48802 23.659 1.48802 23.6713 1.48802L23.7753 1.50026C24.0934 1.53697 24.3871 1.57368 24.6196 1.67157C26.2838 2.34458 27.5074 3.54375 28.2477 5.23238C28.3334 5.42817 28.3884 5.67901 28.4435 5.9421C28.4619 6.03999 28.4863 6.13788 28.5047 6.23577C28.4802 6.3459 28.4374 6.41932 28.3517 6.49886C23.5367 11.3017 18.7277 16.1167 13.9188 20.9257C13.8393 21.0052 13.7659 21.0419 13.6557 21.0664C11.9365 21.4273 10.2234 21.7883 8.50417 22.1493L7.59867 22.339L7.76998 21.5375C8.1432 19.7754 8.51641 18.0073 8.89574 16.2452C8.90798 16.1901 8.95692 16.1045 9.01199 16.0433C10.0766 14.9665 11.1411 13.8958 12.2118 12.8312L15.118 9.92507C17.8895 7.15351 20.6611 4.38195 23.4265 1.60427C23.5428 1.50638 23.5979 1.48802 23.6407 1.48802Z" fill="black"/>
<path d="M2.37999 6.67012H13.0624C13.4785 6.67012 13.815 6.33362 13.815 5.91758C13.815 5.50154 13.4785 5.16504 13.0624 5.16504H2.37999C1.06457 5.16504 0 6.23573 0 7.54503V27.5761C0 28.8916 1.07069 29.9561 2.37999 29.9561H22.405C23.7204 29.9561 24.785 28.8854 24.785 27.5761V17.3281C24.785 16.9121 24.4485 16.5755 24.0324 16.5755C23.6164 16.5755 23.2799 16.9121 23.2799 17.3281V27.5761C23.2799 28.0595 22.8822 28.4572 22.3989 28.4572H2.37999C1.89665 28.4572 1.49897 28.0595 1.49897 27.5761V7.55115C1.49897 7.06781 1.89665 6.67012 2.37999 6.67012Z" fill="black"/>
</svg>
