<svg width="24" height="24" viewBox="0 0 24 24" fill="none" xmlns="http://www.w3.org/2000/svg">
<g clip-path="url(#clip0_2_67)">
<path fill-rule="evenodd" clip-rule="evenodd" d="M17.154 1.5075C17.3757 1.24339 17.6472 1.02553 17.9531 0.86638C18.259 0.707229 18.5932 0.609899 18.9367 0.579951C19.2802 0.550002 19.6262 0.588022 19.955 0.691838C20.2838 0.795654 20.589 0.963232 20.853 1.185L21.906 2.0685C22.4392 2.51592 22.7728 3.15678 22.8336 3.85016C22.8944 4.54354 22.6772 5.23267 22.23 5.766L13.674 15.963C13.0538 16.7025 12.2899 17.3082 11.4285 17.7435L7.57051 19.692C7.37403 19.7912 7.15278 19.8305 6.93416 19.8052C6.71554 19.7798 6.50915 19.6909 6.34055 19.5495C6.17195 19.408 6.04855 19.2202 5.98562 19.0093C5.92269 18.7984 5.923 18.5737 5.98651 18.363L7.23601 14.2245C7.51473 13.301 7.97809 12.4436 8.59801 11.7045L17.154 1.5075V1.5075ZM19.407 2.9085C19.3693 2.87659 19.3257 2.85244 19.2787 2.83743C19.2316 2.82241 19.1821 2.81684 19.1329 2.82102C19.0837 2.8252 19.0358 2.83906 18.992 2.86179C18.9482 2.88452 18.9093 2.91569 18.8775 2.9535L18.0825 3.903L19.7055 5.274L20.5065 4.32C20.5703 4.24379 20.6012 4.14538 20.5925 4.04638C20.5838 3.94737 20.5361 3.85588 20.46 3.792L19.4055 2.907L19.407 2.9085ZM18.2595 6.9975L16.6365 5.6265L10.3215 13.1505C9.8974 13.6565 9.5805 14.2434 9.39001 14.8755L8.89951 16.5L10.4145 15.735C11.0037 15.4372 11.5263 15.0228 11.9505 14.517L18.2595 6.9975V6.9975Z" fill="black"/>
<path d="M4.875 5.25C4.57663 5.25 4.29048 5.36853 4.0795 5.5795C3.86853 5.79048 3.75 6.07663 3.75 6.375V20.625C3.75 21.246 4.254 21.75 4.875 21.75H19.125C19.4234 21.75 19.7095 21.6315 19.9205 21.4205C20.1315 21.2095 20.25 20.9234 20.25 20.625V13.5C20.25 13.2016 20.3685 12.9155 20.5795 12.7045C20.7905 12.4935 21.0766 12.375 21.375 12.375C21.6734 12.375 21.9595 12.4935 22.1705 12.7045C22.3815 12.9155 22.5 13.2016 22.5 13.5V20.625C22.5 21.5201 22.1444 22.3785 21.5115 23.0115C20.8785 23.6444 20.0201 24 19.125 24H4.875C3.97989 24 3.12145 23.6444 2.48851 23.0115C1.85558 22.3785 1.5 21.5201 1.5 20.625V6.375C1.5 5.47989 1.85558 4.62145 2.48851 3.98851C3.12145 3.35558 3.97989 3 4.875 3H9C9.29837 3 9.58452 3.11853 9.7955 3.3295C10.0065 3.54048 10.125 3.82663 10.125 4.125C10.125 4.42337 10.0065 4.70952 9.7955 4.9205C9.58452 5.13147 9.29837 5.25 9 5.25H4.875Z" fill="black"/>
</g>
<defs>
<clipPath id="clip0_2_67">
<rect width="24" height="24" fill="white"/>
</clipPath>
</defs>
</svg>
