<svg width="20" height="20" viewBox="0 0 20 20" fill="none" xmlns="http://www.w3.org/2000/svg">
<g clip-path="url(#clip0_5_50)">
<path d="M18.3334 10C18.3334 14.6025 14.6025 18.3333 10 18.3333C5.39752 18.3333 1.66669 14.6025 1.66669 10C1.66572 8.70613 1.9665 7.42985 2.54514 6.27257C3.12378 5.11529 3.96434 4.1089 5.00002 3.33334V5.59168C4.15149 6.55399 3.59865 7.7407 3.40786 9.00942C3.21706 10.2781 3.3964 11.575 3.92437 12.7443C4.45233 13.9136 5.30649 14.9057 6.38434 15.6016C7.4622 16.2975 8.71796 16.6676 10.0009 16.6675C11.2839 16.6674 12.5396 16.2971 13.6174 15.601C14.6951 14.9049 15.5491 13.9127 16.0769 12.7433C16.6046 11.5739 16.7838 10.277 16.5928 9.00832C16.4017 7.73963 15.8487 6.55301 15 5.59084L15 3.33251C16.0358 4.10815 16.8764 5.11467 17.4551 6.27211C18.0337 7.42955 18.3345 8.70599 18.3334 10V10ZM13.3334 4.16668H10.8334V10.8333H9.16669V4.16668H6.66669L10 1.19209e-05L13.3334 4.16668Z" fill="black"/>
</g>
<defs>
<clipPath id="clip0_5_50">
<rect width="20" height="20" fill="white" transform="translate(0 20) rotate(-90)"/>
</clipPath>
</defs>
</svg>
