<svg width="20" height="20" viewBox="0 0 20 20" fill="none" xmlns="http://www.w3.org/2000/svg">
<path fill-rule="evenodd" clip-rule="evenodd" d="M4.0625 1.875C3.81386 1.875 3.5754 1.97377 3.39959 2.14959C3.22377 2.3254 3.125 2.56386 3.125 2.8125V17.1875C3.125 17.705 3.545 18.125 4.0625 18.125H9.0625C9.31114 18.125 9.5496 18.2238 9.72541 18.3996C9.90123 18.5754 10 18.8139 10 19.0625C10 19.3111 9.90123 19.5496 9.72541 19.7254C9.5496 19.9012 9.31114 20 9.0625 20H4.0625C3.31658 20 2.60121 19.7037 2.07376 19.1762C1.54632 18.6488 1.25 17.9334 1.25 17.1875V2.8125C1.25 2.06658 1.54632 1.35121 2.07376 0.823762C2.60121 0.296316 3.31658 0 4.0625 0L11.9288 0C12.3425 0 12.7413 0.165 13.0338 0.4575L18.2925 5.71625C18.585 6.01 18.75 6.4075 18.75 6.82125V8.4375C18.75 8.68614 18.6512 8.9246 18.4754 9.10041C18.2996 9.27623 18.0611 9.375 17.8125 9.375C17.5639 9.375 17.3254 9.27623 17.1496 9.10041C16.9738 8.9246 16.875 8.68614 16.875 8.4375V7.5H12.1875C11.9389 7.5 11.7004 7.40123 11.5246 7.22541C11.3488 7.0496 11.25 6.81114 11.25 6.5625V1.875H4.0625ZM13.125 3.2L15.55 5.625H13.125V3.2Z" fill="black"/>
<path fill-rule="evenodd" clip-rule="evenodd" d="M20 15C20 16.3261 19.4732 17.5979 18.5355 18.5355C17.5979 19.4732 16.3261 20 15 20C13.6739 20 12.4021 19.4732 11.4645 18.5355C10.5268 17.5979 10 16.3261 10 15C10 13.6739 10.5268 12.4021 11.4645 11.4645C12.4021 10.5268 13.6739 10 15 10C16.3261 10 17.5979 10.5268 18.5355 11.4645C19.4732 12.4021 20 13.6739 20 15V15ZM17.86 13.41C18.0329 13.5884 18.128 13.8282 18.1242 14.0766C18.1205 14.3251 18.0182 14.5619 17.84 14.735L14.8325 17.6525C14.6576 17.822 14.4236 17.9168 14.18 17.9168C13.9364 17.9168 13.7024 17.822 13.5275 17.6525L12.16 16.3275C11.9813 16.1544 11.8787 15.9175 11.8747 15.6688C11.8707 15.4201 11.9657 15.1799 12.1388 15.0013C12.3118 14.8226 12.5488 14.7199 12.7975 14.7159C13.0462 14.712 13.2863 14.8069 13.465 14.98L14.18 15.6737L16.535 13.39C16.7134 13.2171 16.9532 13.122 17.2016 13.1258C17.4501 13.1295 17.6869 13.2318 17.86 13.41V13.41Z" fill="black"/>
</svg>
