<svg width="20" height="20" viewBox="0 0 20 20" fill="none" xmlns="http://www.w3.org/2000/svg">
<g clip-path="url(#clip0_5_40)">
<path d="M14.3781 3.55249L11.7584 3.17187L10.5868 0.798002C10.3479 0.3139 9.65575 0.314174 9.41696 0.798002L8.24539 3.17187L5.62567 3.55249C5.09145 3.63011 4.87782 4.28851 5.26418 4.66511L7.15985 6.51292L6.71231 9.12206C6.62102 9.65402 7.18117 10.0609 7.65875 9.80972L10.0019 8.57788L12.345 9.80972C12.8187 10.0588 13.3834 9.6582 13.2914 9.12206L12.8439 6.51292L14.7396 4.66511C15.1262 4.28828 14.912 3.63011 14.3781 3.55249Z" fill="black"/>
<path d="M4.70449 9.91068H0.652305C0.29207 9.91068 0 10.2027 0 10.5629V18.9127C0 19.2729 0.29207 19.565 0.652305 19.565H4.70449C5.06473 19.565 5.3568 19.273 5.3568 18.9127V10.5629C5.3568 10.2027 5.06473 9.91068 4.70449 9.91068Z" fill="black"/>
<path d="M19.5745 12.7462C18.8684 11.8562 17.5726 11.7268 16.7051 12.4548L13.6148 15.0479C12.6461 15.0479 11.8768 15.0479 10.9907 15.0479L12.3945 13.87C13.4625 12.9738 12.8779 11.1765 11.4227 11.1765H6.66138V18.9388C7.00888 19.2197 7.44419 19.3745 7.89169 19.3745H14.0049C14.4642 19.3745 14.9108 19.2119 15.2627 18.9167L19.2694 15.5549C20.108 14.8512 20.245 13.5912 19.5745 12.7462Z" fill="black"/>
</g>
<defs>
<clipPath id="clip0_5_40">
<rect width="20" height="20" fill="white"/>
</clipPath>
</defs>
</svg>
