<svg width="24" height="24" viewBox="0 0 24 24" fill="none" xmlns="http://www.w3.org/2000/svg">
<g clip-path="url(#clip0_2_87)">
<path d="M22.3 23.7L15.5 16.9C13.9 18.2 11.8 19 9.5 19C4.3 19 0 14.7 0 9.5C0 4.3 4.3 0 9.5 0C14.7 0 19 4.3 19 9.5C19 11.8 18.2 13.8 16.9 15.5L23.7 22.3L22.3 23.7ZM9.5 2C5.4 2 2 5.4 2 9.5C2 13.6 5.4 17 9.5 17C13.6 17 17 13.6 17 9.5C17 5.4 13.6 2 9.5 2Z" fill="white"/>
</g>
<defs>
<clipPath id="clip0_2_87">
<rect width="24" height="24" fill="white"/>
</clipPath>
</defs>
</svg>
