<svg width="24" height="24" viewBox="0 0 24 24" fill="none" xmlns="http://www.w3.org/2000/svg">
<path d="M19.367 11.2325L12.167 5.99616C11.9985 5.87328 11.7705 5.87328 11.6021 5.99616L4.40207 11.2325C4.18799 11.388 4.14047 11.6885 4.29647 11.9026C4.45247 12.1171 4.75199 12.1637 4.96703 12.0086L5.91455 11.3194V17.904C5.91455 18.1694 6.12959 18.384 6.39455 18.384H10.2705C10.5355 18.384 10.7505 18.1694 10.7505 17.904V13.3954H13.0185V17.904C13.0185 18.1694 13.2336 18.384 13.4985 18.384H17.3745C17.6395 18.384 17.8545 18.1694 17.8545 17.904V11.3198L18.8021 12.0091C18.8875 12.071 18.9864 12.1008 19.0838 12.1008C19.2321 12.1008 19.3786 12.0322 19.4726 11.903C19.6291 11.689 19.5811 11.3885 19.367 11.2325ZM16.8945 17.4245H13.9785V12.9158C13.9785 12.6504 13.7635 12.4358 13.4985 12.4358H10.2705C10.0056 12.4358 9.79055 12.6504 9.79055 12.9158V17.4245H6.87455V10.6214L11.8848 6.97776L16.895 10.6214V17.4245H16.8945Z" fill="white"/>
</svg>
