<svg width="20" height="26" viewBox="0 0 20 26" fill="none" xmlns="http://www.w3.org/2000/svg">
<g clip-path="url(#clip0_5_66)">
<path d="M13.0477 22.9406L17.5148 18.2448H13.0477V22.9406ZM4.69377 9.55392V5.40709H3.32744V4.13019H7.47427V5.40709H6.11002V9.5664L4.69377 9.55392ZM14.7988 9.59759C14.5176 9.60174 14.2373 9.56461 13.9669 9.48737C13.7257 9.41418 13.5097 9.27518 13.343 9.086C13.1453 8.8444 13.0077 8.55929 12.9417 8.25414C12.8397 7.78639 12.7936 7.30819 12.8044 6.82957C12.7933 6.36287 12.8422 5.89668 12.95 5.44245C13.022 5.13658 13.1644 4.85173 13.3659 4.61059C13.532 4.41762 13.7478 4.27378 13.9898 4.19466C14.2502 4.1171 14.5209 4.07924 14.7926 4.08236C15.0595 4.07952 15.3264 4.0955 15.5911 4.13019C15.7902 4.1552 15.9874 4.19271 16.1818 4.24249C16.3153 4.27594 16.446 4.31974 16.5727 4.37351V5.47572C16.4812 5.45701 16.3648 5.43621 16.215 5.41749C16.0653 5.39877 15.9031 5.38214 15.7159 5.36966C15.5288 5.35718 15.3249 5.35094 15.1066 5.35094C14.9662 5.34888 14.8262 5.36638 14.6907 5.40293C14.5769 5.43665 14.4794 5.51056 14.4161 5.6109C14.336 5.7488 14.285 5.9017 14.2664 6.0601C14.2308 6.31988 14.2148 6.58196 14.2186 6.84413C14.2159 7.08799 14.2284 7.33178 14.256 7.57409C14.2703 7.73352 14.3148 7.88877 14.387 8.03161C14.4486 8.13889 14.5457 8.22128 14.6615 8.26453C14.8107 8.3152 14.9678 8.33845 15.1253 8.33316C15.4934 8.33316 15.7949 8.33316 16.0258 8.31445C16.2566 8.29573 16.4417 8.28741 16.5769 8.26869V9.35843C16.442 9.41098 16.3028 9.45203 16.161 9.48113C15.9714 9.51922 15.7797 9.5463 15.587 9.56224C15.379 9.58095 15.1087 9.59135 14.8071 9.59135L14.7988 9.59759ZM9.57679 9.6371C9.23794 9.64438 8.90199 9.57321 8.5952 9.42914C8.34122 9.31009 8.12524 9.12291 7.9713 8.88843C7.82536 8.66618 7.74864 8.40563 7.75086 8.13975C7.74688 7.95713 7.78607 7.77614 7.86524 7.61152C7.94497 7.45459 8.05282 7.31361 8.18343 7.19559C8.33183 7.05608 8.49185 6.92945 8.66175 6.8171L9.86586 6.0705C9.96671 6.01391 10.0512 5.93225 10.1113 5.83342C10.147 5.76609 10.1662 5.69126 10.1674 5.61506C10.1669 5.53122 10.1341 5.4508 10.0759 5.39046C10.0368 5.35498 9.99067 5.32813 9.94051 5.31165C9.89035 5.29517 9.83728 5.28943 9.78476 5.29479C9.713 5.29321 9.64185 5.30815 9.57679 5.33847C9.52063 5.36709 9.47375 5.41109 9.44162 5.46532C9.40712 5.52305 9.38981 5.58943 9.3917 5.65665C9.39347 5.7667 9.42433 5.87433 9.48113 5.9686C9.95945 6.85037 11.8831 8.73453 12.636 9.55392H11.2052L9.04856 7.27878C8.9425 7.16648 8.82604 7.02922 8.6971 6.86285C8.56532 6.69262 8.45496 6.50683 8.36852 6.30966C8.27403 6.09847 8.22649 5.86929 8.22918 5.63793C8.22685 5.37902 8.29361 5.12417 8.42259 4.89966C8.55452 4.67759 8.74239 4.49402 8.96746 4.36727C9.21723 4.22819 9.49889 4.15652 9.78476 4.1593C10.0524 4.15255 10.317 4.21639 10.5521 4.34439C10.7592 4.45979 10.9315 4.62855 11.0513 4.83311C11.1699 5.03924 11.2317 5.27323 11.2301 5.51108C11.2314 5.75338 11.1683 5.99167 11.0471 6.20152C10.9156 6.42466 10.7375 6.61687 10.5251 6.76511C10.2111 6.98555 9.41874 7.47635 9.20662 7.74462C9.14197 7.82905 9.10953 7.93375 9.11511 8.03993C9.11248 8.13101 9.1371 8.22081 9.18582 8.29781C9.23696 8.37183 9.30953 8.42844 9.39378 8.46002C9.4893 8.49952 9.592 8.51865 9.69533 8.51617C9.87909 8.51524 10.06 8.47107 10.2236 8.38723C10.4071 8.2992 10.5722 8.17711 10.7102 8.02745C11.0298 7.6913 11.2052 7.24345 11.1989 6.77966H12.3282C12.3295 7.07831 12.2974 7.37616 12.2325 7.66767C12.1724 7.94377 12.0685 8.20846 11.9247 8.4517C11.7818 8.68796 11.5913 8.89192 11.3653 9.05064L11.1573 9.15254L10.9494 9.25653C10.7454 9.38974 10.5204 9.48748 10.2839 9.5456C10.0607 9.60105 9.83171 9.62968 9.60175 9.63086L9.57679 9.6371ZM3.93678 18.7169H7.93595V19.8669H3.93678V18.7169ZM3.93678 15.8053H9.61215V16.9554H3.93678V15.8053ZM3.93678 12.8938H16.0611V14.0439H3.93678V12.8814V12.8938ZM20 17.6458C20.0002 17.8083 19.9472 17.9663 19.8492 18.0958C19.7512 18.2254 19.6136 18.3193 19.4572 18.3633L12.8793 25.2802C12.8101 25.3659 12.7227 25.435 12.6234 25.4825C12.5241 25.53 12.4154 25.5547 12.3053 25.5547H1.33722C1.16153 25.555 0.987525 25.5206 0.825163 25.4535C0.662801 25.3864 0.515279 25.2879 0.391052 25.1637C0.266826 25.0395 0.168338 24.892 0.101233 24.7296C0.0341289 24.5672 -0.00027224 24.3932 1.62234e-06 24.2175V1.33722C-0.00027224 1.16153 0.0341289 0.987525 0.101233 0.825163C0.168338 0.662801 0.266826 0.515279 0.391052 0.391052C0.515279 0.266826 0.662801 0.168338 0.825163 0.101233C0.987525 0.0341289 1.16153 -0.00027224 1.33722 1.62234e-06H18.6628C19.0173 0.000551635 19.3571 0.141613 19.6077 0.39227C19.8584 0.642928 19.9995 0.982734 20 1.33722V17.6458V17.6458ZM18.5089 16.7516V1.49319H1.49319V24.0678H11.5545V17.5023C11.5545 17.3032 11.6336 17.1123 11.7744 16.9715C11.9152 16.8307 12.1062 16.7516 12.3053 16.7516H18.5089Z" fill="black"/>
</g>
<defs>
<clipPath id="clip0_5_66">
<rect width="20" height="25.5547" fill="white"/>
</clipPath>
</defs>
</svg>
